<?xml version="1.0" standalone="no"?>
<!DOCTYPE svg PUBLIC "-//W3C//DTD SVG 20010904//EN"
 "http://www.w3.org/TR/2001/REC-SVG-20010904/DTD/svg10.dtd">
<svg version="1.0" xmlns="http://www.w3.org/2000/svg"
 width="200.000000pt" height="68.000000pt" viewBox="0 0 300.000000 64.000000"
 preserveAspectRatio="xMidYMid meet">
<metadata>
Created by potrace 1.10, written by Peter Selinger 2001-2011
</metadata>
<g transform="translate(0.000000,64.000000) scale(0.100000,-0.100000)"
fill="#f809f8" stroke="none">
<path d="M1256 589 c-42 -33 -54 -67 -52 -146 1 -80 18 -113 75 -147 46 -26
90 -15 140 37 23 23 41 46 41 50 0 5 -9 22 -20 38 l-21 28 -36 -39 c-39 -44
-70 -51 -96 -22 -25 28 -30 67 -13 100 27 53 71 51 115 -4 26 -34 40 -24 17
11 -33 50 -129 64 -172 24 -35 -32 -30 -4 5 32 23 23 38 29 72 29 36 0 47 -6
80 -40 25 -26 47 -40 63 -40 16 0 32 -9 42 -26 l17 -25 37 40 c44 47 61 50 95
16 31 -30 32 -73 4 -109 -28 -35 -58 -33 -99 9 -40 41 -51 39 -21 -4 37 -52
129 -64 174 -24 29 27 19 -1 -10 -29 -55 -51 -104 -44 -163 22 -26 29 -39 37
-49 31 -30 -19 74 -121 122 -121 35 0 87 32 108 66 11 18 18 38 15 43 -3 5 -1
22 5 39 15 43 -5 108 -46 149 -28 28 -40 33 -81 33 -44 0 -51 -4 -94 -49 l-45
-48 -46 48 c-41 45 -49 49 -91 49 -31 0 -54 -7 -72 -21z m388 -31 c11 -10 15
-18 8 -18 -6 0 -14 5 -17 10 -13 21 -64 10 -102 -22 l-38 -33 25 32 c39 50 90
63 124 31z m50 -153 c-22 -34 -30 -25 -10 14 9 16 17 49 18 73 2 41 2 40 5 -9
3 -37 -1 -60 -13 -78z m-439 89 c-9 -15 -21 -47 -26 -73 l-8 -46 3 53 c2 33
10 60 21 72 25 28 30 25 10 -6z m175 -106 c-1 -21 -71 -68 -99 -68 -28 1 -69
26 -58 36 4 4 12 2 19 -3 34 -28 101 -12 113 27 7 22 25 28 25 8z"/>
<path d="M1030 214 c-23 -59 -2 -95 45 -78 26 10 36 -15 19 -47 -8 -16 -14
-37 -14 -49 0 -18 6 -20 60 -20 52 0 61 3 76 25 11 16 15 38 12 62 -3 22 1 50
9 66 22 45 11 57 -51 57 -30 0 -58 -5 -62 -11 -5 -8 -10 -6 -16 5 -5 9 -22 16
-39 16 -22 0 -32 -6 -39 -26z m56 -20 c-3 -9 -6 -20 -6 -25 0 -5 -9 -9 -21 -9
-15 0 -19 4 -15 16 3 9 6 20 6 25 0 5 9 9 21 9 15 0 19 -4 15 -16z m127 -13
c-3 -13 -11 -17 -24 -14 -23 6 -27 -25 -4 -33 23 -9 20 -71 -4 -84 -24 -12
-71 -13 -71 -1 0 24 13 38 31 34 25 -7 24 9 -1 32 -22 20 -26 55 -8 73 7 7 29
12 49 12 31 0 36 -3 32 -19z"/>
<path d="M129 228 c0 -2 -1 -49 -2 -106 l-2 -102 83 0 c54 0 82 4 82 11 0 8 4
8 14 0 9 -8 112 -11 357 -9 338 3 344 3 340 23 -5 29 -3 74 4 118 13 70 32 67
-446 67 -236 0 -429 -1 -430 -2z m66 -72 c-7 -59 10 -46 20 16 5 27 12 38 25
38 15 0 17 -7 14 -47 l-4 -48 16 48 c13 39 19 47 40 47 25 0 30 -9 16 -25 -16
-18 -61 -133 -55 -139 4 -3 -7 -6 -24 -6 -27 0 -30 3 -25 22 3 14 2 19 -6 14
-7 -4 -12 -14 -12 -22 0 -8 -10 -14 -22 -14 -22 0 -23 4 -23 83 0 79 1 82 23
84 23 1 23 -1 17 -51z m204 -23 c-10 -42 -16 -80 -13 -85 3 -4 -8 -8 -24 -8
l-29 0 13 58 c8 31 14 69 14 85 0 23 4 27 29 27 l28 0 -18 -77z m116 65 c6 0
21 4 34 8 21 6 23 5 17 -12 -13 -34 -34 -143 -28 -149 3 -3 -7 -5 -21 -5 -26
0 -27 1 -21 42 8 49 -5 46 -15 -4 -6 -27 -12 -34 -36 -36 -23 -3 -27 -1 -18
10 6 7 17 46 24 85 12 66 15 72 34 66 11 -3 25 -6 30 -5z m150 0 c6 0 21 4 34
8 21 6 23 5 17 -12 -5 -10 -13 -49 -19 -87 -10 -60 -14 -67 -34 -67 -21 0 -23
3 -18 42 l5 43 -14 -40 c-9 -29 -19 -41 -36 -43 -18 -3 -21 0 -16 14 4 9 12
48 18 86 11 62 14 67 33 61 11 -3 25 -6 30 -5z m185 1 c0 -23 -13 -36 -31 -32
-13 4 -19 0 -19 -11 0 -10 8 -16 21 -16 18 0 19 -2 9 -15 -7 -8 -19 -15 -26
-15 -8 0 -14 -7 -14 -16 0 -10 6 -14 15 -10 11 4 15 -1 15 -19 0 -23 -4 -25
-46 -25 -29 0 -43 4 -39 11 4 6 7 26 7 45 0 19 4 37 9 40 5 3 9 20 9 37 0 31
1 32 45 33 25 0 45 -3 45 -7z m106 1 c39 0 45 -20 18 -58 -11 -16 -14 -34 -9
-62 6 -38 5 -40 -18 -40 -20 0 -23 4 -20 24 3 13 0 27 -6 30 -7 5 -11 -4 -11
-23 0 -27 -4 -31 -26 -31 -20 0 -24 4 -19 19 5 18 10 44 22 119 4 24 9 32 20
28 8 -3 30 -6 49 -6z m-631 -92 c-4 -18 -14 -40 -22 -48 -14 -13 -15 -13 -8 5
4 11 12 32 17 48 14 37 21 34 13 -5z"/>
<path d="M1338 217 c0 -7 -2 -43 -4 -82 -2 -38 -4 -79 -6 -90 -3 -19 3 -20
115 -23 81 -1 117 1 117 9 0 8 4 8 13 1 18 -16 427 -16 427 -1 0 8 4 8 13 1
18 -15 229 -14 239 1 5 9 10 9 20 -1 18 -18 103 -15 119 4 11 13 14 13 21 0 7
-12 45 -15 236 -15 125 -1 232 2 238 7 21 14 36 55 30 83 -3 15 1 43 8 61 7
18 11 38 9 45 -3 8 -68 12 -238 12 -207 1 -235 -1 -250 -16 -16 -16 -18 -16
-27 0 -6 12 -23 17 -58 17 -57 0 -75 -18 -86 -88 -4 -23 -10 -42 -15 -42 -14
0 -11 37 6 76 8 20 12 40 9 45 -8 13 -104 11 -104 -2 0 -8 -4 -8 -13 -1 -19
16 -816 15 -819 -1z m112 -16 c0 -19 -12 -41 -20 -36 -5 3 -14 -23 -22 -57
-11 -53 -17 -64 -36 -66 -20 -3 -22 0 -16 25 8 38 15 64 21 87 3 12 1 16 -6
12 -7 -4 -11 1 -11 13 0 15 8 21 33 24 17 2 38 5 45 5 6 1 12 -2 12 -7z m120
-6 c0 -16 -14 -30 -29 -30 -8 0 -16 -6 -18 -12 -3 -8 4 -13 16 -13 26 0 18
-26 -10 -33 -10 -3 -19 -11 -19 -17 0 -7 7 -10 15 -6 11 4 15 -1 15 -19 0 -23
-4 -25 -44 -25 l-45 0 10 29 c5 15 9 32 8 37 -1 5 4 29 11 54 12 44 14 45 51
45 22 0 39 -4 39 -10z m217 -22 c-3 -18 -2 -33 4 -33 5 0 9 9 9 19 0 34 12 51
34 51 l22 0 -20 -85 c-17 -70 -23 -85 -39 -85 -17 0 -19 5 -14 35 3 19 2 35
-4 35 -5 0 -9 -9 -9 -19 0 -34 -12 -51 -34 -51 l-22 0 20 84 c16 71 23 84 39
83 16 -1 18 -7 14 -34z m168 25 c6 0 19 3 30 7 l21 6 -20 -85 c-17 -71 -24
-86 -40 -86 -16 0 -18 5 -13 35 3 19 1 37 -4 40 -5 4 -9 -5 -9 -19 0 -39 -10
-56 -34 -56 l-22 0 20 85 c19 77 22 84 41 78 11 -3 25 -6 30 -5z m279 -35
c-18 -60 -18 -83 1 -83 13 0 14 -4 5 -20 -14 -27 -86 -30 -76 -3 4 9 12 47 18
85 11 64 14 68 39 68 l27 0 -14 -47z m314 25 c-2 -19 -8 -22 -30 -20 -16 2
-28 0 -28 -5 0 -4 -4 -25 -9 -45 -5 -21 -5 -38 -1 -38 5 0 10 12 12 28 2 20 9
28 27 30 22 4 23 2 17 -35 -10 -54 -54 -80 -94 -54 -15 9 -11 65 8 118 10 27
18 33 48 36 20 2 41 4 45 5 5 1 7 -8 5 -20z m98 5 c-4 -9 -12 -47 -18 -85 -11
-64 -14 -68 -38 -68 l-26 0 20 85 c18 78 22 85 44 85 18 0 23 -4 18 -17z m134
2 c0 -16 -14 -30 -29 -30 -8 0 -16 -6 -18 -12 -3 -8 4 -13 17 -13 19 0 20 -2
10 -15 -7 -8 -19 -15 -26 -15 -8 0 -14 -7 -14 -16 0 -10 6 -14 15 -10 11 4 15
-1 15 -19 0 -23 -4 -25 -44 -25 l-45 0 10 29 c5 15 9 32 8 37 -1 5 3 29 10 54
12 44 13 45 52 45 21 1 39 -4 39 -10z m123 -10 c-3 -8 -16 -15 -29 -15 -29 0
-30 -11 -4 -35 42 -38 15 -95 -45 -95 -31 0 -34 2 -26 22 6 16 15 22 30 20 26
-4 27 10 1 33 -23 20 -26 57 -7 73 12 10 66 20 79 15 4 -2 5 -10 1 -18z
m-1199 7 c9 -14 -6 -52 -20 -52 -7 0 -17 7 -22 16 -8 14 -10 11 -16 -12 -4
-16 -9 -38 -12 -49 -3 -12 -2 -15 3 -9 4 6 18 13 31 16 17 5 22 2 22 -12 0
-40 -68 -68 -97 -39 -11 11 1 99 18 131 10 19 83 26 93 10z m436 -19 c-1 -82
-30 -133 -76 -133 -36 0 -43 19 -32 80 14 70 22 80 69 80 36 0 39 -2 39 -27z
m260 0 c0 -44 -20 -107 -38 -121 -20 -16 -57 -16 -70 1 -7 8 -7 29 3 69 17 75
20 78 66 78 36 0 39 -2 39 -27z"/>
<path d="M2086 162 c-10 -17 -18 -87 -8 -77 5 6 13 27 16 48 6 35 3 47 -8 29z"/>
<path d="M2340 156 c0 -7 -3 -29 -6 -47 -4 -24 -2 -29 4 -19 16 25 25 80 13
80 -6 0 -11 -6 -11 -14z"/>
</g>
</svg>
